<svg id="visual" viewBox="0 0 900 600" width="900" height="600" xmlns="http://www.w3.org/2000/svg" xmlns:xlink="http://www.w3.org/1999/xlink" version="1.1"><rect x="0" y="0" width="900" height="600" fill="#001220"></rect><path d="M0 397L21.5 393.7C43 390.3 86 383.7 128.8 377.7C171.7 371.7 214.3 366.3 257.2 366.8C300 367.3 343 373.7 385.8 379.8C428.7 386 471.3 392 514.2 397.3C557 402.7 600 407.3 642.8 410.8C685.7 414.3 728.3 416.7 771.2 407C814 397.3 857 375.7 878.5 364.8L900 354L900 601L878.5 601C857 601 814 601 771.2 601C728.3 601 685.7 601 642.8 601C600 601 557 601 514.2 601C471.3 601 428.7 601 385.8 601C343 601 300 601 257.2 601C214.3 601 171.7 601 128.8 601C86 601 43 601 21.5 601L0 601Z" fill="#172a3a"></path><path d="M0 422L21.5 426.7C43 431.3 86 440.7 128.8 436.3C171.7 432 214.3 414 257.2 404.7C300 395.3 343 394.7 385.8 400.7C428.7 406.7 471.3 419.3 514.2 433.5C557 447.7 600 463.3 642.8 465C685.7 466.7 728.3 454.3 771.2 451.7C814 449 857 456 878.5 459.5L900 463L900 601L878.5 601C857 601 814 601 771.2 601C728.3 601 685.7 601 642.8 601C600 601 557 601 514.2 601C471.3 601 428.7 601 385.8 601C343 601 300 601 257.2 601C214.3 601 171.7 601 128.8 601C86 601 43 601 21.5 601L0 601Z" fill="#1f405a"></path><path d="M0 445L21.5 452.7C43 460.3 86 475.7 128.8 477.5C171.7 479.3 214.3 467.7 257.2 460.7C300 453.7 343 451.3 385.8 455.7C428.7 460 471.3 471 514.2 470.2C557 469.3 600 456.7 642.8 456.8C685.7 457 728.3 470 771.2 477.7C814 485.3 857 487.7 878.5 488.8L900 490L900 601L878.5 601C857 601 814 601 771.2 601C728.3 601 685.7 601 642.8 601C600 601 557 601 514.2 601C471.3 601 428.7 601 385.8 601C343 601 300 601 257.2 601C214.3 601 171.7 601 128.8 601C86 601 43 601 21.5 601L0 601Z" fill="#28577c"></path><path d="M0 497L21.5 498.2C43 499.3 86 501.7 128.8 508.5C171.7 515.3 214.3 526.7 257.2 531.2C300 535.7 343 533.3 385.8 527.7C428.7 522 471.3 513 514.2 506.5C557 500 600 496 642.8 495.3C685.7 494.7 728.3 497.3 771.2 505.7C814 514 857 528 878.5 535L900 542L900 601L878.5 601C857 601 814 601 771.2 601C728.3 601 685.7 601 642.8 601C600 601 557 601 514.2 601C471.3 601 428.7 601 385.8 601C343 601 300 601 257.2 601C214.3 601 171.7 601 128.8 601C86 601 43 601 21.5 601L0 601Z" fill="#316fa0"></path><path d="M0 533L21.5 535.5C43 538 86 543 128.8 545.2C171.7 547.3 214.3 546.7 257.2 543.5C300 540.3 343 534.7 385.8 539.2C428.7 543.7 471.3 558.3 514.2 558C557 557.7 600 542.3 642.8 534.8C685.7 527.3 728.3 527.7 771.2 532.8C814 538 857 548 878.5 553L900 558L900 601L878.5 601C857 601 814 601 771.2 601C728.3 601 685.7 601 642.8 601C600 601 557 601 514.2 601C471.3 601 428.7 601 385.8 601C343 601 300 601 257.2 601C214.3 601 171.7 601 128.8 601C86 601 43 601 21.5 601L0 601Z" fill="#3c87c5"></path></svg>