<svg id="visual" viewBox="0 0 900 600" width="900" height="600" xmlns="http://www.w3.org/2000/svg" xmlns:xlink="http://www.w3.org/1999/xlink" version="1.1"><path d="M0 25L18.8 28C37.7 31 75.3 37 112.8 36C150.3 35 187.7 27 225.2 24C262.7 21 300.3 23 337.8 22C375.3 21 412.7 17 450.2 15C487.7 13 525.3 13 562.8 16C600.3 19 637.7 25 675.2 30C712.7 35 750.3 39 787.8 36C825.3 33 862.7 23 881.3 18L900 13L900 0L881.3 0C862.7 0 825.3 0 787.8 0C750.3 0 712.7 0 675.2 0C637.7 0 600.3 0 562.8 0C525.3 0 487.7 0 450.2 0C412.7 0 375.3 0 337.8 0C300.3 0 262.7 0 225.2 0C187.7 0 150.3 0 112.8 0C75.3 0 37.7 0 18.8 0L0 0Z" fill="#334e65"></path><path d="M0 67L18.8 70C37.7 73 75.3 79 112.8 74C150.3 69 187.7 53 225.2 46C262.7 39 300.3 41 337.8 42C375.3 43 412.7 43 450.2 42C487.7 41 525.3 39 562.8 44C600.3 49 637.7 61 675.2 69C712.7 77 750.3 81 787.8 78C825.3 75 862.7 65 881.3 60L900 55L900 11L881.3 16C862.7 21 825.3 31 787.8 34C750.3 37 712.7 33 675.2 28C637.7 23 600.3 17 562.8 14C525.3 11 487.7 11 450.2 13C412.7 15 375.3 19 337.8 20C300.3 21 262.7 19 225.2 22C187.7 25 150.3 33 112.8 34C75.3 35 37.7 29 18.8 26L0 23Z" fill="#2d475c"></path><path d="M0 169L18.8 170C37.7 171 75.3 173 112.8 173C150.3 173 187.7 171 225.2 161C262.7 151 300.3 133 337.8 138C375.3 143 412.7 171 450.2 169C487.7 167 525.3 135 562.8 122C600.3 109 637.7 115 675.2 130C712.7 145 750.3 169 787.8 187C825.3 205 862.7 217 881.3 223L900 229L900 53L881.3 58C862.7 63 825.3 73 787.8 76C750.3 79 712.7 75 675.2 67C637.7 59 600.3 47 562.8 42C525.3 37 487.7 39 450.2 40C412.7 41 375.3 41 337.8 40C300.3 39 262.7 37 225.2 44C187.7 51 150.3 67 112.8 72C75.3 77 37.7 71 18.8 68L0 65Z" fill="#283f53"></path><path d="M0 211L18.8 209C37.7 207 75.3 203 112.8 203C150.3 203 187.7 207 225.2 201C262.7 195 300.3 179 337.8 184C375.3 189 412.7 215 450.2 216C487.7 217 525.3 193 562.8 180C600.3 167 637.7 165 675.2 174C712.7 183 750.3 203 787.8 223C825.3 243 862.7 263 881.3 273L900 283L900 227L881.3 221C862.7 215 825.3 203 787.8 185C750.3 167 712.7 143 675.2 128C637.7 113 600.3 107 562.8 120C525.3 133 487.7 165 450.2 167C412.7 169 375.3 141 337.8 136C300.3 131 262.7 149 225.2 159C187.7 169 150.3 171 112.8 171C75.3 171 37.7 169 18.8 168L0 167Z" fill="#22384b"></path><path d="M0 253L18.8 250C37.7 247 75.3 241 112.8 240C150.3 239 187.7 243 225.2 239C262.7 235 300.3 223 337.8 226C375.3 229 412.7 247 450.2 244C487.7 241 525.3 217 562.8 203C600.3 189 637.7 185 675.2 199C712.7 213 750.3 245 787.8 271C825.3 297 862.7 317 881.3 327L900 337L900 281L881.3 271C862.7 261 825.3 241 787.8 221C750.3 201 712.7 181 675.2 172C637.7 163 600.3 165 562.8 178C525.3 191 487.7 215 450.2 214C412.7 213 375.3 187 337.8 182C300.3 177 262.7 193 225.2 199C187.7 205 150.3 201 112.8 201C75.3 201 37.7 205 18.8 207L0 209Z" fill="#1c3142"></path><path d="M0 277L18.8 276C37.7 275 75.3 273 112.8 272C150.3 271 187.7 271 225.2 265C262.7 259 300.3 247 337.8 251C375.3 255 412.7 275 450.2 274C487.7 273 525.3 251 562.8 240C600.3 229 637.7 229 675.2 242C712.7 255 750.3 281 787.8 303C825.3 325 862.7 343 881.3 352L900 361L900 335L881.3 325C862.7 315 825.3 295 787.8 269C750.3 243 712.7 211 675.2 197C637.7 183 600.3 187 562.8 201C525.3 215 487.7 239 450.2 242C412.7 245 375.3 227 337.8 224C300.3 221 262.7 233 225.2 237C187.7 241 150.3 237 112.8 238C75.3 239 37.7 245 18.8 248L0 251Z" fill="#172a3a"></path><path d="M0 313L18.8 313C37.7 313 75.3 313 112.8 309C150.3 305 187.7 297 225.2 287C262.7 277 300.3 265 337.8 268C375.3 271 412.7 289 450.2 289C487.7 289 525.3 271 562.8 262C600.3 253 637.7 253 675.2 269C712.7 285 750.3 317 787.8 339C825.3 361 862.7 373 881.3 379L900 385L900 359L881.3 350C862.7 341 825.3 323 787.8 301C750.3 279 712.7 253 675.2 240C637.7 227 600.3 227 562.8 238C525.3 249 487.7 271 450.2 272C412.7 273 375.3 253 337.8 249C300.3 245 262.7 257 225.2 263C187.7 269 150.3 269 112.8 270C75.3 271 37.7 273 18.8 274L0 275Z" fill="#162837"></path><path d="M0 373L18.8 376C37.7 379 75.3 385 112.8 383C150.3 381 187.7 371 225.2 356C262.7 341 300.3 321 337.8 327C375.3 333 412.7 365 450.2 368C487.7 371 525.3 345 562.8 333C600.3 321 637.7 323 675.2 334C712.7 345 750.3 365 787.8 381C825.3 397 862.7 409 881.3 415L900 421L900 383L881.3 377C862.7 371 825.3 359 787.8 337C750.3 315 712.7 283 675.2 267C637.7 251 600.3 251 562.8 260C525.3 269 487.7 287 450.2 287C412.7 287 375.3 269 337.8 266C300.3 263 262.7 275 225.2 285C187.7 295 150.3 303 112.8 307C75.3 311 37.7 311 18.8 311L0 311Z" fill="#162634"></path><path d="M0 469L18.8 470C37.7 471 75.3 473 112.8 475C150.3 477 187.7 479 225.2 464C262.7 449 300.3 417 337.8 412C375.3 407 412.7 429 450.2 429C487.7 429 525.3 407 562.8 403C600.3 399 637.7 413 675.2 421C712.7 429 750.3 431 787.8 440C825.3 449 862.7 465 881.3 473L900 481L900 419L881.3 413C862.7 407 825.3 395 787.8 379C750.3 363 712.7 343 675.2 332C637.7 321 600.3 319 562.8 331C525.3 343 487.7 369 450.2 366C412.7 363 375.3 331 337.8 325C300.3 319 262.7 339 225.2 354C187.7 369 150.3 379 112.8 381C75.3 383 37.7 377 18.8 374L0 371Z" fill="#152431"></path><path d="M0 493L18.8 493C37.7 493 75.3 493 112.8 496C150.3 499 187.7 505 225.2 491C262.7 477 300.3 443 337.8 436C375.3 429 412.7 449 450.2 448C487.7 447 525.3 425 562.8 423C600.3 421 637.7 439 675.2 448C712.7 457 750.3 457 787.8 465C825.3 473 862.7 489 881.3 497L900 505L900 479L881.3 471C862.7 463 825.3 447 787.8 438C750.3 429 712.7 427 675.2 419C637.7 411 600.3 397 562.8 401C525.3 405 487.7 427 450.2 427C412.7 427 375.3 405 337.8 410C300.3 415 262.7 447 225.2 462C187.7 477 150.3 475 112.8 473C75.3 471 37.7 469 18.8 468L0 467Z" fill="#15222e"></path><path d="M0 601L18.8 601C37.7 601 75.3 601 112.8 601C150.3 601 187.7 601 225.2 601C262.7 601 300.3 601 337.8 601C375.3 601 412.7 601 450.2 601C487.7 601 525.3 601 562.8 601C600.3 601 637.7 601 675.2 601C712.7 601 750.3 601 787.8 601C825.3 601 862.7 601 881.3 601L900 601L900 503L881.3 495C862.7 487 825.3 471 787.8 463C750.3 455 712.7 455 675.2 446C637.7 437 600.3 419 562.8 421C525.3 423 487.7 445 450.2 446C412.7 447 375.3 427 337.8 434C300.3 441 262.7 475 225.2 489C187.7 503 150.3 497 112.8 494C75.3 491 37.7 491 18.8 491L0 491Z" fill="#14202b"></path></svg>