<svg id="visual" viewBox="0 0 900 600" width="900" height="600" xmlns="http://www.w3.org/2000/svg" xmlns:xlink="http://www.w3.org/1999/xlink" version="1.1"><rect x="0" y="0" width="900" height="600" fill="#3C87C5"></rect><defs><linearGradient id="grad1_0" x1="33.3%" y1="100%" x2="100%" y2="0%"><stop offset="20%" stop-color="#3c87c5" stop-opacity="1"></stop><stop offset="80%" stop-color="#3c87c5" stop-opacity="1"></stop></linearGradient></defs><defs><linearGradient id="grad2_0" x1="0%" y1="100%" x2="66.7%" y2="0%"><stop offset="20%" stop-color="#3c87c5" stop-opacity="1"></stop><stop offset="80%" stop-color="#3c87c5" stop-opacity="1"></stop></linearGradient></defs><g transform="translate(900, 600)"><path d="M-432.7 0C-356.6 -28.8 -280.6 -57.6 -267 -110.6C-253.4 -163.5 -302.2 -240.6 -294.9 -294.9C-287.5 -349.1 -224.1 -380.6 -165.6 -399.7C-107.1 -418.9 -53.5 -425.8 0 -432.7L0 0Z" fill="#172A3A"></path></g><g transform="translate(0, 0)"><path d="M432.7 0C360.4 26.3 288.1 52.5 279.9 116C271.8 179.4 327.7 280 305.9 305.9C284.2 331.9 184.9 283.3 120.9 291.9C57 300.6 28.5 366.6 0 432.7L0 0Z" fill="#172A3A"></path></g></svg>