<svg id="visual" viewBox="0 0 675 900" width="675" height="900" xmlns="http://www.w3.org/2000/svg" xmlns:xlink="http://www.w3.org/1999/xlink" version="1.1"><rect x="0" y="0" width="675" height="900" fill="#172A3A"></rect><path d="M0 705L16 709C32 713 64 721 96.2 726C128.3 731 160.7 733 192.8 725.7C225 718.3 257 701.7 289.2 704.7C321.3 707.7 353.7 730.3 385.8 743C418 755.7 450 758.3 482.2 753.5C514.3 748.7 546.7 736.3 578.8 723.5C611 710.7 643 697.3 659 690.7L675 684L675 901L659 901C643 901 611 901 578.8 901C546.7 901 514.3 901 482.2 901C450 901 418 901 385.8 901C353.7 901 321.3 901 289.2 901C257 901 225 901 192.8 901C160.7 901 128.3 901 96.2 901C64 901 32 901 16 901L0 901Z" fill="#2b6390"></path><path d="M0 733L16 737.8C32 742.7 64 752.3 96.2 760.8C128.3 769.3 160.7 776.7 192.8 777.8C225 779 257 774 289.2 766.2C321.3 758.3 353.7 747.7 385.8 740C418 732.3 450 727.7 482.2 734.8C514.3 742 546.7 761 578.8 761.5C611 762 643 744 659 735L675 726L675 901L659 901C643 901 611 901 578.8 901C546.7 901 514.3 901 482.2 901C450 901 418 901 385.8 901C353.7 901 321.3 901 289.2 901C257 901 225 901 192.8 901C160.7 901 128.3 901 96.2 901C64 901 32 901 16 901L0 901Z" fill="#3375aa"></path><path d="M0 783L16 780.3C32 777.7 64 772.3 96.2 773.7C128.3 775 160.7 783 192.8 787.2C225 791.3 257 791.7 289.2 788.5C321.3 785.3 353.7 778.7 385.8 779.7C418 780.7 450 789.3 482.2 797.2C514.3 805 546.7 812 578.8 804.5C611 797 643 775 659 764L675 753L675 901L659 901C643 901 611 901 578.8 901C546.7 901 514.3 901 482.2 901C450 901 418 901 385.8 901C353.7 901 321.3 901 289.2 901C257 901 225 901 192.8 901C160.7 901 128.3 901 96.2 901C64 901 32 901 16 901L0 901Z" fill="#3c87c5"></path><path d="M0 826L16 828.5C32 831 64 836 96.2 831.2C128.3 826.3 160.7 811.7 192.8 806.2C225 800.7 257 804.3 289.2 812C321.3 819.7 353.7 831.3 385.8 833.2C418 835 450 827 482.2 826C514.3 825 546.7 831 578.8 829C611 827 643 817 659 812L675 807L675 901L659 901C643 901 611 901 578.8 901C546.7 901 514.3 901 482.2 901C450 901 418 901 385.8 901C353.7 901 321.3 901 289.2 901C257 901 225 901 192.8 901C160.7 901 128.3 901 96.2 901C64 901 32 901 16 901L0 901Z" fill="#5f99ce"></path><path d="M0 851L16 852.3C32 853.7 64 856.3 96.2 853.7C128.3 851 160.7 843 192.8 844.5C225 846 257 857 289.2 858C321.3 859 353.7 850 385.8 846.2C418 842.3 450 843.7 482.2 844.7C514.3 845.7 546.7 846.3 578.8 846.8C611 847.3 643 847.7 659 847.8L675 848L675 901L659 901C643 901 611 901 578.8 901C546.7 901 514.3 901 482.2 901C450 901 418 901 385.8 901C353.7 901 321.3 901 289.2 901C257 901 225 901 192.8 901C160.7 901 128.3 901 96.2 901C64 901 32 901 16 901L0 901Z" fill="#7dabd6"></path></svg>