<svg id="visual" viewBox="0 0 900 600" width="900" height="600" xmlns="http://www.w3.org/2000/svg" xmlns:xlink="http://www.w3.org/1999/xlink" version="1.1"><path d="M0 181L13.7 166C27.3 151 54.7 121 82 119C109.3 117 136.7 143 163.8 157C191 171 218 173 245.2 177C272.3 181 299.7 187 327 171C354.3 155 381.7 117 409 118C436.3 119 463.7 159 491 184C518.3 209 545.7 219 573 209C600.3 199 627.7 169 654.8 168C682 167 709 195 736.2 202C763.3 209 790.7 195 818 172C845.3 149 872.7 117 886.3 101L900 85L900 0L886.3 0C872.7 0 845.3 0 818 0C790.7 0 763.3 0 736.2 0C709 0 682 0 654.8 0C627.7 0 600.3 0 573 0C545.7 0 518.3 0 491 0C463.7 0 436.3 0 409 0C381.7 0 354.3 0 327 0C299.7 0 272.3 0 245.2 0C218 0 191 0 163.8 0C136.7 0 109.3 0 82 0C54.7 0 27.3 0 13.7 0L0 0Z" fill="#7dabd6"></path><path d="M0 229L13.7 224C27.3 219 54.7 209 82 209C109.3 209 136.7 219 163.8 231C191 243 218 257 245.2 270C272.3 283 299.7 295 327 280C354.3 265 381.7 223 409 225C436.3 227 463.7 273 491 297C518.3 321 545.7 323 573 313C600.3 303 627.7 281 654.8 279C682 277 709 295 736.2 299C763.3 303 790.7 293 818 263C845.3 233 872.7 183 886.3 158L900 133L900 83L886.3 99C872.7 115 845.3 147 818 170C790.7 193 763.3 207 736.2 200C709 193 682 165 654.8 166C627.7 167 600.3 197 573 207C545.7 217 518.3 207 491 182C463.7 157 436.3 117 409 116C381.7 115 354.3 153 327 169C299.7 185 272.3 179 245.2 175C218 171 191 169 163.8 155C136.7 141 109.3 115 82 117C54.7 119 27.3 149 13.7 164L0 179Z" fill="#5f99ce"></path><path d="M0 385L13.7 370C27.3 355 54.7 325 82 328C109.3 331 136.7 367 163.8 382C191 397 218 391 245.2 385C272.3 379 299.7 373 327 365C354.3 357 381.7 347 409 363C436.3 379 463.7 421 491 433C518.3 445 545.7 427 573 402C600.3 377 627.7 345 654.8 339C682 333 709 353 736.2 370C763.3 387 790.7 401 818 386C845.3 371 872.7 327 886.3 305L900 283L900 131L886.3 156C872.7 181 845.3 231 818 261C790.7 291 763.3 301 736.2 297C709 293 682 275 654.8 277C627.7 279 600.3 301 573 311C545.7 321 518.3 319 491 295C463.7 271 436.3 225 409 223C381.7 221 354.3 263 327 278C299.7 293 272.3 281 245.2 268C218 255 191 241 163.8 229C136.7 217 109.3 207 82 207C54.7 207 27.3 217 13.7 222L0 227Z" fill="#3c87c5"></path><path d="M0 475L13.7 455C27.3 435 54.7 395 82 391C109.3 387 136.7 419 163.8 440C191 461 218 471 245.2 473C272.3 475 299.7 469 327 454C354.3 439 381.7 415 409 423C436.3 431 463.7 471 491 490C518.3 509 545.7 507 573 489C600.3 471 627.7 437 654.8 423C682 409 709 415 736.2 423C763.3 431 790.7 441 818 428C845.3 415 872.7 379 886.3 361L900 343L900 281L886.3 303C872.7 325 845.3 369 818 384C790.7 399 763.3 385 736.2 368C709 351 682 331 654.8 337C627.7 343 600.3 375 573 400C545.7 425 518.3 443 491 431C463.7 419 436.3 377 409 361C381.7 345 354.3 355 327 363C299.7 371 272.3 377 245.2 383C218 389 191 395 163.8 380C136.7 365 109.3 329 82 326C54.7 323 27.3 353 13.7 368L0 383Z" fill="#3375aa"></path><path d="M0 601L13.7 601C27.3 601 54.7 601 82 601C109.3 601 136.7 601 163.8 601C191 601 218 601 245.2 601C272.3 601 299.7 601 327 601C354.3 601 381.7 601 409 601C436.3 601 463.7 601 491 601C518.3 601 545.7 601 573 601C600.3 601 627.7 601 654.8 601C682 601 709 601 736.2 601C763.3 601 790.7 601 818 601C845.3 601 872.7 601 886.3 601L900 601L900 341L886.3 359C872.7 377 845.3 413 818 426C790.7 439 763.3 429 736.2 421C709 413 682 407 654.8 421C627.7 435 600.3 469 573 487C545.7 505 518.3 507 491 488C463.7 469 436.3 429 409 421C381.7 413 354.3 437 327 452C299.7 467 272.3 473 245.2 471C218 469 191 459 163.8 438C136.7 417 109.3 385 82 389C54.7 393 27.3 433 13.7 453L0 473Z" fill="#2b6390"></path></svg>